<?xml version="1.0" ?><svg id="Layer_1" style="enable-background:new 0 0 50 50;" version="1.1" viewBox="0 0 50 50" xml:space="preserve" xmlns="http://www.w3.org/2000/svg" xmlns:xlink="http://www.w3.org/1999/xlink"><style type="text/css">
	.st0{fill:#F0C4DB;}
	.st1{fill:#FF9D9C;}
	.st2{fill:#9BEAF9;}
	.st3{fill:#E9F4BC;}
	.st4{fill:#505050;}
	.st5{fill:#FEBECC;}
	.st6{fill:#FFFFFF;}
	.st7{fill:#FDE4A1;}
	.st8{fill:#FEE7B5;}
	.st9{fill:#CDF6FC;}
	.st10{fill:#F2C6DD;}
	.st11{opacity:0.1;}
</style><g><path class="st5" d="M16.07,13.34c-5.61,0-10.7,2.22-14.47,5.8v29.73h29.6c3.63-3.77,5.87-8.89,5.87-14.54   C37.07,22.74,27.67,13.34,16.07,13.34z"/><g><path class="st1" d="M36.04,11.78l3.66-9.4c-4.26-2.11-9.62,3.35-13.39,0l3.65,9.4h0.03c-5.75,2.44-10.04,11.4-10.04,17.58    c0,0.22,0.01,0.43,0.01,0.64V30l-0.19,6.08l13.16,4.51l12.87-8.73c0.18-0.73,0.28-1.56,0.28-2.5    C46.09,23.18,41.8,14.22,36.04,11.78z"/><path class="st6" d="M47.47,33.53c-0.29-0.81-0.92-1.39-1.67-1.68c-0.74-0.29-1.61-0.3-2.39,0.03l-12.59,5.35h-0.01l-2.46,1.05    l0.93-1.12c0.03-0.06,0.06-0.12,0.08-0.18c0.62-1.52-0.11-3.23-1.62-3.83L19.96,30V30l-0.27-0.11c-1.65-0.67-3.5-0.65-5.14,0.04    l-6.89,2.93l3.91,9.22l3.2-1.36l10.08,4.08c1.05,0.43,2.24,0.42,3.29-0.03l17.72-7.52c0.75-0.32,1.29-0.91,1.58-1.61    C47.7,34.99,47.73,34.24,47.47,33.53z"/><polygon class="st2" points="12.51,44.31 7.03,47.88 3.56,32.4 6.86,31 7.65,32.86 11.56,42.08   "/><path d="M29.29,37.16c0.44,0.03,0.9,0.05,1.36,0.06c0.06,0,0.11,0,0.17,0.01h0.01"/><g><path class="st4" d="M48.18,33.27c-0.27-0.77-0.82-1.41-1.54-1.83c0.12-0.65,0.2-1.34,0.2-2.08c0-6.28-4.17-15.04-9.85-17.96     l3.4-8.75c0.14-0.36-0.02-0.77-0.37-0.94C37.78,0.59,35.4,1.3,33.1,1.98c-2.46,0.73-4.59,1.35-6.29-0.16     c-0.26-0.23-0.64-0.25-0.93-0.06c-0.28,0.2-0.4,0.56-0.27,0.89l3.4,8.76c-5.54,2.86-9.62,11.29-9.8,17.53     c-1.64-0.46-3.4-0.36-4.96,0.31l-6.2,2.63l-0.5-1.17c-0.16-0.38-0.6-0.56-0.98-0.4l-3.31,1.4c-0.33,0.14-0.52,0.5-0.44,0.85     L6.3,48.04c0.05,0.24,0.22,0.44,0.45,0.53c0.09,0.04,0.19,0.06,0.28,0.06c0.14,0,0.29-0.04,0.41-0.12l5.48-3.57     c0.3-0.2,0.42-0.59,0.28-0.92l-0.65-1.54l2.22-0.94l6.47,2.61c0.37,0.16,0.82-0.04,0.97-0.41c0.08-0.19,0.08-0.39,0-0.57     c-0.08-0.19-0.23-0.33-0.41-0.41l-6.75-2.73c-0.18-0.07-0.4-0.07-0.57,0.01l-2.52,1.06l-3.32-7.83l6.2-2.64     c1.43-0.61,3.09-0.64,4.57-0.04l0.19,0.08c0.03,0.01,0.05,0.02,0.08,0.03l7.79,3.15c0.83,0.33,1.37,1.13,1.37,2.02     c0,0.28-0.05,0.56-0.16,0.84c-0.01,0.01-0.08,0.17-0.14,0.33l-0.08,0.19c-0.03,0.08-0.07,0.16-0.1,0.23l-0.04,0.08     c-0.04,0-0.07-0.01-0.1,0c-0.31,0.06-0.64,0.05-0.95-0.03c-0.1-0.02-0.19-0.05-0.29-0.09l-7-2.05c-0.38-0.12-0.81,0.12-0.93,0.51     c-0.11,0.39,0.11,0.81,0.51,0.93c0.01,0,0.01,0,0.02,0l6.88,2.02c0.15,0.06,0.31,0.1,0.45,0.14c0.3,0.07,0.61,0.11,0.91,0.11     c0.23,0,0.45-0.02,0.68-0.06c0.16-0.03,0.29-0.12,0.4-0.24c0.12,0.01,0.25-0.01,0.36-0.06l1.84-0.79h0.02l12.59-5.35     c0.57-0.24,1.24-0.25,1.82-0.02c0.61,0.23,1.04,0.66,1.24,1.23c0.09,0.24,0.13,0.49,0.13,0.74c0,0.29-0.05,0.58-0.16,0.84     c-0.22,0.54-0.64,0.97-1.18,1.2l-17.72,7.52c-0.76,0.32-1.62,0.36-2.39,0.13c-0.39-0.11-0.82,0.12-0.94,0.51     c-0.05,0.19-0.03,0.39,0.06,0.57c0.1,0.17,0.25,0.3,0.44,0.36h0.01c0.47,0.14,0.95,0.21,1.44,0.21c0.68,0,1.34-0.14,1.97-0.4     l17.72-7.52c0.91-0.39,1.61-1.11,1.98-2.02c0.18-0.45,0.27-0.92,0.27-1.4C48.4,34.1,48.33,33.68,48.18,33.27z M7.53,46.66     l-3.1-13.81l2.04-0.86l5.11,12.04L7.53,46.66z M27.75,4.02c1.87,0.54,3.91-0.06,5.77-0.61c1.86-0.55,3.64-1.07,5.21-0.62     l-3.2,8.23h-5.05L27.75,4.02z M43.12,31.19l-12.86,5.46c0.05-0.26,0.08-0.52,0.08-0.79c0-1.51-0.91-2.85-2.31-3.41l-7.33-2.96     c0-0.05,0-0.09,0-0.14c0-5.88,4.13-14.46,9.47-16.83h5.7c5.34,2.36,9.47,10.94,9.47,16.83c0,0.56-0.05,1.08-0.13,1.58     C44.5,30.84,43.77,30.92,43.12,31.19z"/><path class="st4" d="M23.65,43.5c-0.37-0.15-0.82,0.04-0.97,0.42c-0.16,0.38,0.03,0.82,0.41,0.97c0.09,0.04,0.18,0.06,0.28,0.06     c0.31,0,0.58-0.19,0.7-0.47C24.22,44.1,24.04,43.66,23.65,43.5z"/><path class="st4" d="M33,19.22c1.25,0,2.27,1.02,2.27,2.27c0,0.41,0.34,0.75,0.75,0.75s0.75-0.34,0.75-0.75     c0-1.82-1.3-3.35-3.02-3.7v-0.88c0-0.41-0.34-0.75-0.75-0.75s-0.75,0.34-0.75,0.75v0.88c-1.72,0.35-3.02,1.87-3.02,3.7     c0,2.08,1.69,3.77,3.77,3.77c1.25,0,2.27,1.02,2.27,2.27s-1.02,2.27-2.27,2.27s-2.27-1.02-2.27-2.27c0-0.41-0.34-0.75-0.75-0.75     s-0.75,0.34-0.75,0.75c0,1.82,1.3,3.35,3.02,3.7v0.88c0,0.41,0.34,0.75,0.75,0.75s0.75-0.34,0.75-0.75v-0.88     c1.72-0.35,3.02-1.87,3.02-3.7c0-2.08-1.69-3.77-3.77-3.77c-1.25,0-2.27-1.02-2.27-2.27S31.75,19.22,33,19.22z"/></g></g></g></svg>