<?xml version="1.0" encoding="utf-8"?>
<!-- Generator: Adobe Illustrator 16.0.3, SVG Export Plug-In . SVG Version: 6.00 Build 0)  -->
<!DOCTYPE svg PUBLIC "-//W3C//DTD SVG 1.1//EN" "http://www.w3.org/Graphics/SVG/1.1/DTD/svg11.dtd">
<svg version="1.1" id="Layer_1" xmlns="http://www.w3.org/2000/svg" xmlns:xlink="http://www.w3.org/1999/xlink" x="0px" y="0px"
	 width="305px" height="284.74px" viewBox="0 0 305 284.74" enable-background="new 0 0 305 284.74" xml:space="preserve">
<defs>
	<filter id="Adobe_OpacityMaskFilter" filterUnits="userSpaceOnUse" x="11.597" y="265.733" width="270.416" height="19.007">
		<feColorMatrix  type="matrix" values="1 0 0 0 0  0 1 0 0 0  0 0 1 0 0  0 0 0 1 0"/>
	</filter>
</defs>
<mask maskUnits="userSpaceOnUse" x="11.597" y="265.733" width="270.416" height="19.007" id="SVGID_1_">
	<g filter="url(#Adobe_OpacityMaskFilter)">
		<defs>
			<filter id="Adobe_OpacityMaskFilter_1_" filterUnits="userSpaceOnUse" x="11.597" y="265.733" width="270.416" height="19.007">
				<feFlood  style="flood-color:white;flood-opacity:1" result="back"/>
				<feBlend  in="SourceGraphic" in2="back" mode="normal"/>
			</filter>
		</defs>
		<mask maskUnits="userSpaceOnUse" x="11.597" y="265.733" width="270.416" height="19.007" id="SVGID_1_">
			<g filter="url(#Adobe_OpacityMaskFilter_1_)">
			</g>
		</mask>
		
			<radialGradient id="SVGID_2_" cx="36.8867" cy="-201.4902" r="80.5332" gradientTransform="matrix(1.679 0 0 0.118 84.8718 299.0126)" gradientUnits="userSpaceOnUse">
			<stop  offset="0" style="stop-color:#212121"/>
			<stop  offset="0.0206" style="stop-color:#202020"/>
			<stop  offset="0.6236" style="stop-color:#090909"/>
			<stop  offset="1" style="stop-color:#000000"/>
		</radialGradient>
		<ellipse mask="url(#SVGID_1_)" fill="url(#SVGID_2_)" cx="146.805" cy="275.236" rx="135.208" ry="9.504"/>
	</g>
</mask>
<ellipse fill="#2A2200" cx="146.805" cy="275.236" rx="135.208" ry="9.504"/>
<g>
	<path fill="#FF465A" d="M56.995,250.132c-14.518,0-26.105-5.647-31.791-15.495c-5.686-9.848-4.784-22.707,2.476-35.28
		l94.764-164.136c7.259-12.573,17.944-19.783,29.315-19.783s22.057,7.21,29.315,19.783l94.764,164.136
		c7.26,12.573,8.161,25.433,2.476,35.28s-17.273,15.495-31.79,15.495H56.995z"/>
	<g>
		<g>
			<path fill="#8C7100" d="M151.759,16.438c11.005,0,21.374,7.028,28.449,19.283l94.765,164.136
				c7.075,12.255,7.977,24.75,2.475,34.28c-5.502,9.529-16.773,14.995-30.925,14.995H56.995c-14.151,0-25.422-5.466-30.925-14.995
				c-5.502-9.53-4.6-22.024,2.475-34.28L123.31,35.721C130.385,23.466,140.755,16.438,151.759,16.438L151.759,16.438z
				 M151.759,15.438c-11.371,0-22.057,7.211-29.315,19.783L27.68,199.356c-7.259,12.573-8.161,25.433-2.476,35.28
				c5.686,9.848,17.273,15.495,31.791,15.495h189.527c14.518,0,26.105-5.647,31.791-15.495s4.784-22.707-2.476-35.28L181.074,35.221
				C173.815,22.648,163.13,15.438,151.759,15.438L151.759,15.438z"/>
		</g>
	</g>
	<g>
		<g>
			<path d="M151.759,31.727c5.474,0,10.875,4.133,15.208,11.639l47.382,82.068l47.382,82.068c4.334,7.505,5.213,14.249,2.476,18.989
				c-2.737,4.741-9.017,7.352-17.684,7.352h-94.764H56.995c-8.667,0-14.947-2.61-17.684-7.352
				c-2.737-4.74-1.858-11.484,2.475-18.989l47.382-82.068l47.382-82.068C140.884,35.86,146.285,31.727,151.759,31.727
				L151.759,31.727z M151.759,25.727c-7.385,0-14.77,4.879-20.404,14.639l-47.382,82.068l-47.382,82.068
				c-11.269,19.518-2.134,35.341,20.404,35.341h94.764h94.764c22.538,0,31.673-15.823,20.404-35.341l-47.382-82.068l-47.382-82.068
				C166.528,30.606,159.144,25.727,151.759,25.727L151.759,25.727z"/>
		</g>
	</g>
	<path d="M151.47,213.329c-6.572,0-10.988-4.647-10.988-11.565c0-7.026,4.464-11.566,11.373-11.566
		c6.866,0,11.047,4.365,11.183,11.676c-0.001,6.916-4.391,11.456-11.183,11.456H151.47z M144.864,176.353l-4.204-86.628
		c-0.169-3.471,1.954-7.778,5.088-8.773c1.958-0.622,3.904-0.929,5.858-0.929c1.989,0,4.034,0.333,6.123,0.996
		c3.278,1.04,5.533,5.357,5.365,8.828l-4.198,86.506c-0.169,3.471-3.123,6.285-6.598,6.285h-0.837
		C147.986,182.638,145.032,179.823,144.864,176.353z"/>
</g>
</svg>
